<?xml version="1.0" standalone="no"?>
<!DOCTYPE svg PUBLIC "-//W3C//DTD SVG 20010904//EN"
 "http://www.w3.org/TR/2001/REC-SVG-20010904/DTD/svg10.dtd">
<svg version="1.0" xmlns="http://www.w3.org/2000/svg"
 width="591.000000pt" height="591.000000pt" viewBox="0 0 591.000000 591.000000"
 preserveAspectRatio="xMidYMid meet">
<metadata>
Created by potrace 1.15, written by Peter Selinger 2001-2017
</metadata>
<g transform="translate(0.000000,591.000000) scale(0.100000,-0.100000)"
fill="#000000" stroke="none">
<path d="M4548 5685 c-2 -2 -15 -6 -28 -9 -83 -17 -128 -34 -257 -99 -111 -55
-225 -124 -231 -139 -2 -4 -8 -8 -13 -8 -21 0 -196 -164 -300 -280 -109 -123
-240 -341 -320 -535 -23 -56 -72 -217 -103 -336 -30 -123 -38 -142 -94 -224
-33 -49 -79 -124 -101 -165 -37 -70 -40 -73 -49 -50 -5 14 -13 45 -17 70 -11
70 -47 190 -57 190 -10 0 -4 -49 15 -105 6 -19 9 -32 22 -102 3 -16 8 -35 11
-43 16 -44 12 -82 -15 -144 -24 -51 -83 -208 -116 -304 -4 -11 -13 -9 -38 8
-17 12 -45 28 -62 36 -16 8 -50 30 -75 48 -25 19 -70 51 -100 72 -84 59 -175
127 -178 136 -2 5 -17 15 -33 24 -22 11 -29 11 -27 2 4 -17 120 -109 243 -192
55 -38 109 -76 120 -85 11 -9 36 -24 55 -34 19 -10 46 -26 59 -36 23 -17 23
-20 11 -70 -6 -28 -15 -51 -18 -51 -7 0 -38 20 -101 62 -14 10 -35 22 -46 28
-11 6 -49 29 -85 51 -113 69 -380 196 -515 244 -335 121 -550 165 -825 169
-304 6 -535 -44 -823 -175 -168 -77 -248 -136 -341 -251 -39 -49 -73 -153 -56
-173 9 -11 10 -16 10 -40 0 -25 48 -64 70 -58 14 4 20 0 20 -11 0 -27 29 -76
45 -76 8 0 15 -5 15 -10 0 -15 48 -31 102 -35 28 -2 53 -10 65 -22 10 -10 32
-28 48 -40 23 -16 26 -23 15 -27 -126 -44 -237 -89 -332 -137 l-118 -59 0
-588 0 -587 98 -49 c84 -42 111 -63 197 -150 84 -85 110 -120 167 -221 77
-139 197 -305 279 -387 113 -111 262 -180 438 -203 57 -8 109 -19 115 -25 7
-7 13 -79 16 -188 4 -129 11 -194 24 -239 l19 -63 1267 0 1267 0 6 67 c8 82
25 105 61 83 121 -76 174 -106 223 -126 l58 -24 501 0 500 0 105 68 c57 37
120 87 139 109 54 64 209 336 237 416 31 88 32 123 16 657 -13 394 -17 434
-68 661 -24 110 -71 224 -122 301 -26 38 -28 47 -19 80 11 42 -13 149 -39 175
-24 24 -13 94 20 127 25 25 27 32 22 82 -5 46 -31 104 -58 124 -14 11 -29 50
-19 50 5 0 10 7 10 15 0 8 -4 15 -10 15 -5 0 -10 7 -10 15 0 8 4 15 10 15 9 0
26 67 21 85 -2 6 -4 17 -6 27 -7 33 -34 74 -64 96 -23 16 -31 31 -31 52 0 24
-8 35 -42 56 -87 52 -88 54 -140 194 -79 210 -99 297 -97 415 1 55 6 105 11
112 6 7 11 101 11 210 2 162 -1 210 -16 263 -35 129 -112 261 -175 304 -22 15
-31 32 -42 80 -14 68 -24 90 -49 115 -19 19 -18 81 0 81 23 0 58 175 39 194
-16 16 -12 32 17 66 23 28 27 42 27 100 0 53 -4 73 -18 89 -11 12 -15 25 -10
33 14 21 12 30 -13 78 -15 30 -43 59 -81 85 -56 39 -59 40 -148 42 -51 1 -93
0 -96 -2z m-75 -450 c-38 -46 -49 -53 -55 -35 -1 5 -16 -7 -32 -27 -16 -20
-24 -33 -18 -29 19 12 35 -3 21 -20 -16 -19 1 -18 31 3 28 20 29 20 41 1 6 -9
9 -9 9 -1 0 6 -7 18 -15 27 -10 9 -11 17 -5 21 6 3 13 -1 16 -9 4 -9 18 -16
33 -16 l26 1 -24 19 c-19 17 -21 21 -7 26 9 3 16 10 16 15 0 4 -7 6 -15 3 -24
-10 -17 4 18 36 37 34 40 35 61 14 9 -8 16 -13 16 -9 0 3 10 0 23 -7 12 -7 26
-11 31 -10 5 2 5 -5 1 -15 -4 -10 -10 -27 -13 -38 -6 -23 -57 -77 -65 -69 -3
3 -8 -4 -12 -15 -9 -28 -25 -27 -26 2 0 12 -3 16 -6 9 -2 -6 -10 -9 -16 -5 -7
4 -5 -1 3 -12 14 -16 13 -17 -8 -11 -12 4 -22 3 -22 -2 0 -5 -21 -17 -47 -26
-27 -10 -63 -24 -82 -32 -18 -8 -35 -13 -38 -11 -2 3 3 21 11 41 8 20 13 43
10 51 -9 22 -23 8 -19 -18 3 -15 -5 -33 -21 -50 -33 -36 -43 -28 -15 11 12 17
21 42 21 56 0 14 5 26 10 26 16 0 11 25 -10 53 -11 14 -20 31 -20 38 0 8 7 6
20 -6 22 -20 28 -8 8 15 -7 8 -3 6 10 -5 20 -16 25 -17 32 -5 6 8 10 19 10 23
0 5 5 5 10 2 6 -3 10 -1 10 6 0 10 3 10 12 1 9 -9 16 -8 32 6 18 16 19 16 13
0 -8 -23 -1 -23 30 2 43 34 46 22 6 -25z m-364 -205 c6 0 8 6 5 14 -3 8 -1 17
5 21 6 3 12 -2 12 -12 4 -39 6 -49 13 -65 5 -10 11 -16 15 -14 4 3 13 1 20 -4
11 -6 9 -10 -8 -19 -12 -7 -26 -9 -31 -6 -5 3 -14 -3 -20 -12 -8 -12 -13 -14
-16 -6 -3 7 -12 9 -20 6 -13 -5 -13 -8 -2 -15 9 -7 7 -8 -9 -5 -22 5 -48 -14
-36 -26 8 -9 -10 -9 -31 -1 -30 12 -17 40 17 35 8 -1 10 23 1 32 -6 6 -54 -37
-54 -48 0 -11 28 -35 42 -36 9 0 9 -2 -2 -7 -15 -7 -132 -85 -177 -118 -21
-15 -25 -15 -49 1 -14 9 -32 14 -40 11 -10 -4 -14 3 -14 23 0 16 7 31 15 35 8
3 15 13 15 23 0 10 4 14 8 8 13 -18 31 -15 27 4 -2 11 5 27 16 37 10 9 19 13
19 8 0 -5 4 -2 10 6 5 8 13 11 17 6 4 -4 1 -13 -7 -19 -8 -7 -16 -18 -17 -24
-4 -16 46 11 124 69 84 62 106 84 98 99 -5 7 -4 10 3 5 6 -3 14 4 18 16 l7 23
8 -23 c5 -12 13 -22 18 -22z m413 15 c5 -6 8 -6 8 1 0 7 11 9 25 6 14 -2 25
-8 25 -13 0 -5 9 -9 19 -9 14 0 21 -9 25 -30 3 -16 9 -43 12 -60 3 -19 1 -30
-6 -30 -6 0 -8 -5 -3 -12 12 -20 15 -61 4 -54 -5 4 -12 -2 -15 -12 -5 -15 -42
-28 -173 -60 -91 -23 -168 -40 -171 -38 -2 3 -11 -2 -19 -10 -9 -8 -22 -13
-29 -10 -8 3 -14 2 -14 -3 0 -12 -57 -34 -69 -26 -6 3 -11 1 -11 -5 0 -5 -16
-18 -35 -27 -34 -16 -35 -16 -63 9 -15 15 -40 30 -57 33 -30 7 -30 7 -7 -9 12
-10 22 -24 22 -32 0 -8 3 -14 8 -14 4 0 15 -7 25 -14 18 -14 18 -16 1 -71 -10
-32 -24 -59 -31 -62 -6 -3 -9 -11 -7 -18 3 -7 0 -24 -7 -37 -7 -13 -14 -27
-15 -33 -14 -66 -128 -345 -141 -345 -3 0 -2 8 2 18 3 9 10 37 15 62 5 25 13
56 17 70 6 22 5 24 -10 11 -9 -7 -14 -17 -11 -22 3 -5 -1 -6 -9 -3 -9 3 -21
-4 -30 -16 -11 -15 -16 -18 -20 -8 -3 7 -6 3 -6 -10 -1 -13 -5 -21 -10 -17 -5
3 -16 -7 -24 -22 -7 -16 -23 -44 -34 -63 -33 -58 -47 -85 -48 -90 -1 -3 -12
-25 -25 -50 -13 -25 -23 -50 -22 -56 3 -15 -25 -26 -33 -14 -7 11 80 301 103
345 9 17 15 33 14 38 -1 4 3 7 8 7 6 0 10 7 10 15 0 8 5 15 11 15 5 0 8 4 5 8
-6 10 31 58 39 50 4 -3 -2 -15 -13 -26 -11 -11 -18 -23 -14 -26 11 -11 21 -6
27 15 4 12 12 18 21 15 11 -4 12 -2 4 14 -13 24 -13 33 0 25 6 -3 10 -1 10 4
0 6 -5 11 -11 11 -7 0 -17 8 -24 17 -11 15 -16 10 -43 -42 -34 -69 -117 -289
-158 -420 -15 -49 -29 -84 -32 -77 -2 7 1 27 8 45 6 17 14 43 16 57 3 14 20
70 40 125 19 55 35 107 36 115 1 8 4 17 8 20 10 7 71 137 75 161 2 11 -1 16
-8 13 -19 -7 -15 75 3 86 8 6 10 10 4 10 -6 0 -11 6 -11 14 0 8 6 12 15 9 12
-5 12 -3 1 15 -12 19 -11 24 5 39 18 17 18 17 7 -7 l-12 -25 18 24 c9 13 19
32 20 43 2 11 10 26 18 34 8 9 15 22 15 30 0 8 5 14 10 14 6 0 9 6 8 12 -2 7
7 14 18 16 16 2 20 8 17 22 -4 15 10 29 63 63 38 24 89 55 114 68 24 13 50 30
58 37 41 37 315 157 339 148 7 -3 13 -1 13 5 0 6 7 9 15 5 8 -3 15 -1 15 4 0
17 50 21 62 5z m113 -263 c-3 -3 5 -10 16 -16 12 -6 20 -14 18 -17 -2 -3 2
-13 10 -22 7 -10 10 -17 6 -17 -5 0 0 -9 11 -21 10 -11 19 -30 19 -42 0 -12 3
-27 8 -34 4 -6 4 -19 1 -28 -4 -10 -1 -21 7 -26 11 -7 11 -11 2 -17 -10 -6
-10 -17 -3 -42 13 -44 13 -45 -4 -31 -11 10 -17 8 -25 -6 -10 -17 -12 -17 -29
5 -16 20 -19 21 -37 8 -14 -10 -24 -11 -32 -4 -19 15 -16 27 5 21 13 -3 18 2
19 19 1 12 -1 18 -5 12 -10 -16 -40 -25 -47 -14 -5 9 30 52 37 45 2 -2 9 3 16
11 7 8 9 14 4 14 -14 0 -21 37 -11 47 6 6 5 10 -3 11 -61 5 -67 9 -47 29 8 8
8 13 0 18 -6 3 -11 3 -10 -2 1 -4 -1 -16 -5 -25 -7 -14 -12 -16 -29 -7 -17 10
-19 9 -14 -5 4 -9 3 -16 -2 -16 -4 0 -14 -11 -21 -25 -14 -26 -30 -33 -30 -14
0 17 -49 59 -55 48 -4 -5 -1 -9 4 -9 6 0 11 -7 11 -15 0 -8 -5 -15 -10 -15 -6
0 -13 7 -16 15 -4 8 -14 15 -23 15 -10 0 -21 3 -25 7 -11 11 -69 12 -82 2 -8
-6 -14 -5 -17 4 -9 24 50 75 106 93 121 37 303 67 282 46z m-405 -148 c0 -8
-4 -13 -9 -9 -15 9 -58 -41 -66 -75 -7 -32 8 -84 32 -109 8 -7 11 -22 8 -35
-4 -14 -3 -17 3 -8 6 9 18 11 35 6 27 -6 39 -26 15 -23 -32 4 -39 0 -26 -15
10 -10 18 -11 32 -4 15 8 18 7 13 -5 -5 -13 -2 -13 25 0 18 10 33 12 39 6 6
-6 -28 -26 -92 -53 -115 -49 -149 -56 -149 -32 0 14 -2 14 -9 3 -7 -10 -13
-11 -27 -2 -11 6 -13 11 -6 11 7 0 10 5 7 10 -5 8 -11 7 -21 -1 -8 -6 -15 -10
-15 -8 -6 17 -4 67 2 81 7 13 4 15 -14 11 -17 -4 -19 -3 -7 6 8 5 11 13 8 17
-4 4 -3 14 2 24 5 9 11 30 14 46 9 51 47 142 62 148 19 7 37 -30 31 -67 -5
-39 19 -115 45 -142 20 -20 20 -19 0 20 -11 22 -21 58 -23 80 -3 45 26 115 47
115 8 0 14 5 14 10 0 6 7 10 15 10 8 0 15 -7 15 -16z m284 -80 c10 -10 24 -13
37 -9 l21 7 -21 -21 c-17 -17 -19 -25 -11 -41 6 -11 13 -20 16 -20 2 0 0 9 -6
20 -9 16 -8 20 5 20 8 0 15 -9 15 -20 0 -11 4 -20 9 -20 21 0 20 -31 -2 -39
-61 -23 -66 -23 -62 -2 2 12 0 21 -6 21 -5 0 -9 -9 -9 -19 0 -15 -15 -25 -55
-40 -31 -12 -60 -21 -65 -21 -20 0 -9 19 19 36 29 17 51 51 51 79 0 7 6 15 13
18 6 2 9 8 5 12 -11 11 -28 -4 -28 -26 0 -10 -4 -19 -9 -19 -19 0 -21 18 -6
53 12 29 19 34 36 30 15 -4 20 -3 15 5 -11 18 20 15 38 -4z m266 -125 c0 -8 5
-7 15 1 13 11 14 10 9 -4 -4 -9 -1 -16 6 -16 8 0 11 -10 7 -29 -5 -25 -4 -28
14 -24 11 3 25 17 30 31 5 14 12 22 16 19 3 -4 -2 -22 -11 -41 -21 -44 -20
-50 7 -70 12 -9 16 -14 10 -11 -8 4 -11 1 -7 -9 3 -9 10 -16 16 -16 5 0 7 -4
3 -9 -3 -5 0 -13 5 -16 7 -5 5 -11 -6 -20 -17 -12 -17 -14 -1 -29 9 -10 17
-20 17 -24 0 -3 -5 -1 -12 6 -18 18 -26 14 -21 -11 4 -18 0 -23 -18 -24 -13
-1 -30 3 -38 10 -12 10 -14 9 -8 -5 10 -27 0 -22 -34 17 -17 19 -37 35 -45 35
-8 0 -14 4 -14 9 0 14 25 7 44 -12 10 -9 23 -17 29 -17 8 0 8 3 2 8 -5 4 -17
16 -25 26 -14 18 -14 19 8 7 14 -7 22 -8 22 -1 0 5 -4 10 -8 10 -4 0 -8 8 -9
18 -4 51 -10 65 -33 81 -14 10 -38 21 -54 25 -26 6 -28 6 -16 -9 7 -9 20 -13
29 -10 12 5 13 3 5 -5 -13 -13 -67 -3 -58 11 3 5 0 9 -5 9 -19 0 -12 -22 9
-27 24 -6 24 -12 5 -37 -18 -23 -19 -36 -4 -36 20 0 34 -25 35 -63 1 -34 0
-36 -13 -20 -14 17 -14 16 -10 -4 3 -13 0 -21 -6 -20 -6 1 -12 -4 -13 -10 -1
-7 -2 -17 -3 -22 -2 -18 -98 -44 -107 -30 -3 5 2 9 10 9 8 0 17 9 21 20 3 11
9 19 13 19 19 -3 32 2 32 12 0 6 7 18 16 26 25 25 8 111 -30 148 -24 24 -66
46 -76 40 -5 -3 -10 -1 -10 4 0 6 -15 10 -35 8 -20 -1 -35 -7 -35 -14 0 -7 5
-13 12 -13 11 0 2 -14 -10 -16 -49 -6 -111 -62 -112 -101 0 -24 19 -71 35 -89
16 -16 55 -28 90 -26 28 2 29 1 11 -13 -11 -8 -30 -12 -45 -10 -25 5 -26 5 -3
-6 12 -7 22 -17 22 -24 0 -10 -160 -65 -197 -68 -7 0 -13 -4 -13 -9 0 -5 -8
-8 -17 -6 -11 2 -17 -2 -15 -10 1 -8 -2 -11 -7 -8 -9 6 -52 -9 -114 -40 -16
-8 -34 -11 -39 -7 -6 3 -8 2 -5 -4 3 -5 -19 -21 -49 -36 -48 -24 -54 -25 -55
-9 0 13 -2 12 -9 -5 -5 -12 -19 -27 -31 -33 -12 -7 -19 -8 -15 -2 3 6 2 13 -4
17 -6 3 -10 -4 -10 -16 0 -21 -1 -21 -18 -6 -10 10 -22 14 -26 10 -5 -5 -7 1
-5 11 2 11 10 21 18 24 10 3 12 0 8 -11 -3 -9 -2 -19 3 -22 6 -4 10 7 10 24 0
20 7 35 20 43 11 7 20 16 20 19 0 15 -36 3 -57 -18 -12 -13 -25 -23 -28 -23
-9 0 0 25 14 36 8 6 12 16 10 23 -5 14 77 107 91 104 5 -2 7 4 4 11 -3 8 3 19
15 26 12 6 21 15 21 20 0 16 -13 12 -40 -12 -14 -13 -34 -30 -45 -38 -16 -13
-16 -10 3 15 32 40 112 125 119 125 3 0 -2 -11 -11 -25 -25 -38 -19 -42 14
-10 17 16 30 35 30 42 0 7 5 13 11 13 6 0 9 -6 6 -12 -3 -7 -8 -22 -12 -33
l-7 -20 17 20 c9 11 18 30 22 43 3 12 11 22 19 22 8 0 14 4 14 9 0 7 36 26
175 92 62 29 223 89 240 89 8 0 15 -8 16 -17 1 -12 4 -10 9 7 8 24 8 24 9 3 1
-24 15 -30 27 -12 3 6 0 15 -7 20 -16 10 -15 10 24 15 24 2 27 -1 27 -25 0
-15 -3 -31 -7 -37 -5 -5 0 -1 9 9 10 11 15 23 12 28 -8 13 10 11 24 -3 15 -15
15 -3 1 25 -12 22 -12 22 10 3 22 -20 22 -20 15 0 -7 16 -5 17 8 6 12 -10 18
-9 28 3 14 17 50 20 50 4z m137 -329 c-3 -14 -1 -17 11 -13 9 4 13 2 9 -5 -8
-12 12 -62 25 -62 4 0 8 5 8 10 0 6 -5 10 -11 10 -5 0 -7 5 -4 10 3 6 1 10 -5
10 -8 0 -8 6 0 20 6 11 15 20 20 20 6 0 10 -9 10 -20 0 -14 7 -20 21 -20 17 0
19 -3 10 -14 -9 -11 -7 -15 11 -21 20 -7 19 -8 -15 -14 -45 -7 -50 -18 -19
-38 14 -10 22 -11 22 -4 0 20 17 11 29 -15 11 -25 10 -26 -13 -20 -24 6 -25 4
-16 -18 9 -24 8 -24 -18 -10 -15 8 -39 12 -54 8 -17 -3 -28 -1 -28 5 0 6 -5
11 -11 11 -5 0 -7 -4 -4 -10 3 -5 -1 -10 -9 -10 -8 0 -20 8 -25 18 -13 24 26
63 40 41 6 -10 12 -9 28 5 12 11 21 23 21 27 0 9 -32 0 -40 -12 -11 -15 -52
12 -62 41 -6 17 -13 29 -16 26 -3 -3 -12 3 -20 15 -18 26 -8 37 38 41 19 2 43
4 54 5 13 1 17 -3 13 -17z m-147 -4 c0 -17 -14 -35 -23 -29 -6 4 -8 0 -4 -10
4 -11 2 -14 -9 -10 -9 3 -14 -1 -14 -11 0 -9 -11 -22 -25 -28 -17 -8 -24 -17
-20 -28 3 -11 0 -17 -10 -17 -8 0 -15 1 -15 1 0 1 4 16 9 34 12 40 4 42 -10 3
-6 -17 -16 -28 -22 -25 -7 2 -28 -10 -46 -27 -27 -24 -31 -33 -20 -40 19 -12
29 -11 29 2 0 18 24 34 53 35 39 0 34 -14 -8 -22 -19 -3 -32 -10 -29 -15 3 -5
9 -7 13 -5 4 3 26 7 50 10 24 2 47 8 50 13 7 10 131 12 131 2 0 -4 -7 -14 -15
-22 -11 -12 -12 -16 -2 -20 9 -3 9 -7 -1 -19 -11 -13 -10 -16 5 -14 10 0 18
-6 18 -14 0 -8 -8 -15 -17 -15 -9 0 -20 -4 -24 -8 -14 -14 -22 -7 -16 15 3 14
2 19 -6 14 -7 -4 -12 -16 -12 -27 0 -20 -15 -26 -25 -9 -3 5 -12 7 -20 4 -8
-4 -12 -11 -8 -17 4 -7 0 -8 -13 -3 -10 4 -15 4 -11 -1 5 -4 -7 -13 -25 -19
-18 -6 -33 -17 -34 -25 0 -22 -15 -49 -26 -49 -5 0 -6 5 -2 12 4 7 3 8 -5 4
-6 -4 -9 -11 -7 -15 7 -10 -9 -32 -25 -35 -33 -6 -76 -34 -124 -78 -27 -27
-57 -48 -66 -48 -8 0 -28 -13 -44 -30 -15 -16 -32 -27 -37 -24 -4 3 -8 -2 -8
-10 0 -9 -6 -16 -14 -16 -7 0 -26 -7 -42 -14 -15 -8 -31 -13 -35 -11 -4 3 -12
-2 -19 -10 -7 -8 -17 -15 -22 -15 -6 0 -5 7 2 15 9 10 9 15 1 15 -11 0 -14 -9
-14 -41 0 -9 -8 -15 -21 -15 -15 1 -22 -6 -24 -23 -2 -15 0 -21 7 -16 6 3 9
10 6 15 -3 5 0 12 6 16 8 5 9 3 4 -6 -6 -10 -2 -11 17 -7 17 5 31 1 46 -14 22
-19 32 -66 12 -54 -5 3 -10 4 -10 1 0 -2 14 -11 30 -20 18 -8 30 -10 30 -4 0
7 5 7 13 -1 8 -6 17 -8 20 -5 4 4 25 8 47 9 52 3 57 9 42 48 -8 21 -9 33 -2
35 5 2 10 12 10 23 0 16 6 18 41 15 50 -5 70 -21 40 -31 -12 -3 -19 -11 -15
-16 3 -5 9 -7 14 -4 4 3 11 -7 14 -21 6 -21 9 -24 21 -14 11 9 12 17 4 31 -6
12 -6 19 0 19 5 0 11 -5 13 -11 2 -5 11 -7 21 -3 10 3 16 13 13 20 -3 8 17 -2
44 -21 28 -19 54 -35 59 -35 6 0 13 -5 17 -12 5 -8 2 -9 -9 -5 -10 3 -17 2
-17 -3 0 -6 11 -10 25 -10 14 0 25 5 25 11 0 6 7 3 16 -5 8 -9 18 -16 22 -16
3 0 1 5 -6 12 -16 16 -15 28 3 28 8 0 15 -4 15 -10 0 -5 5 -10 10 -10 6 0 9 5
8 11 -2 6 7 13 20 15 13 2 21 0 18 -4 -3 -5 9 -8 27 -6 18 1 42 -4 54 -12 19
-12 24 -12 37 2 9 8 16 12 16 7 0 -5 12 -10 26 -11 14 -1 31 -5 37 -9 7 -4 16
-8 21 -8 5 0 11 -6 14 -14 4 -11 -3 -13 -29 -8 -33 5 -33 5 -6 -6 15 -6 27
-14 27 -19 0 -4 7 -5 15 -2 8 4 23 3 33 -1 9 -4 37 -9 61 -11 48 -4 72 -18 47
-27 -8 -3 -18 -2 -21 3 -11 18 -23 11 -30 -17 -6 -24 -8 -25 -14 -10 -6 17 -8
17 -20 4 -12 -15 -27 -15 -96 -3 -62 11 -93 15 -185 25 -122 14 -250 20 -245
11 2 -3 41 -7 87 -8 80 -3 268 -27 298 -39 14 -6 57 -12 92 -14 9 0 19 -6 21
-14 7 -16 -32 -28 -49 -15 -8 7 -11 2 -10 -20 1 -17 7 -30 14 -30 6 0 12 5 12
10 0 6 8 5 20 -2 11 -7 20 -19 20 -26 0 -7 -4 -10 -10 -7 -5 3 -10 2 -10 -4 0
-19 19 -22 140 -22 66 0 120 -4 120 -9 0 -14 -37 -31 -54 -24 -22 9 -20 -9 3
-25 11 -8 17 -19 15 -26 -3 -6 4 -22 16 -35 24 -28 25 -34 4 -54 -19 -20 -40
-10 -23 10 10 12 9 13 -5 8 -9 -3 -16 -10 -16 -14 0 -5 -9 -6 -19 -3 -13 3
-18 11 -14 21 3 12 2 13 -4 5 -10 -14 -26 -12 -157 16 -55 11 -101 19 -104 16
-2 -2 9 -7 24 -11 167 -38 209 -52 206 -70 -2 -13 0 -15 5 -7 11 15 69 1 66
-16 -2 -6 4 -11 13 -11 9 0 12 5 8 11 -4 7 7 4 25 -7 17 -10 31 -22 31 -27 0
-4 4 -6 9 -2 12 7 19 -16 23 -75 3 -44 3 -45 -35 -51 -46 -7 -58 -18 -28 -26
13 -3 20 -11 17 -19 -3 -8 0 -13 7 -11 7 1 11 -6 9 -17 -2 -12 1 -15 8 -11 8
5 10 2 6 -11 -3 -11 -2 -25 3 -33 11 -17 3 -41 -13 -41 -7 0 -36 12 -65 26
-28 15 -54 24 -56 22 -2 -2 12 -13 33 -23 20 -11 51 -29 69 -40 31 -20 32 -22
18 -49 -18 -33 -19 -39 -5 -31 12 7 14 -16 3 -31 -5 -5 -1 -2 8 7 10 12 20 14
30 8 8 -5 9 -9 3 -9 -6 0 -9 -13 -6 -30 5 -38 -14 -40 -55 -7 -15 13 -56 42
-90 65 -33 23 -63 45 -65 49 -3 8 -128 75 -128 69 0 -2 48 -35 108 -74 139
-93 196 -144 179 -162 -6 -7 -7 -10 -2 -8 6 3 17 -1 25 -10 13 -14 12 -15 -3
-9 -12 5 -17 1 -17 -12 0 -10 -7 -24 -15 -31 -13 -11 -15 -10 -9 6 5 18 5 18
-9 1 -9 -11 -13 -25 -10 -33 3 -8 0 -14 -7 -14 -8 0 -10 10 -5 33 5 24 4 28
-4 17 -9 -12 -11 -10 -12 10 -1 17 -3 19 -6 8 -7 -29 -47 -16 -54 18 -4 19 -7
22 -8 9 -1 -15 -3 -17 -10 -7 -7 11 -9 11 -14 -2 -3 -8 -2 -18 4 -21 5 -4 7
-10 4 -15 -3 -4 17 -25 44 -45 28 -20 60 -48 71 -63 12 -15 18 -20 14 -12 -5
11 -2 11 11 -2 15 -14 16 -20 6 -32 -8 -9 -10 -24 -5 -38 10 -29 6 -56 -13
-88 -9 -15 -12 -17 -7 -5 13 36 17 82 6 66 -8 -11 -11 -8 -15 15 l-4 29 -2
-32 c0 -18 4 -33 9 -33 7 0 6 -8 -1 -22 -9 -16 -14 -19 -17 -9 -4 11 -6 11
-13 0 -7 -11 -9 -10 -9 4 0 10 -4 15 -10 12 -12 -8 -32 6 -117 82 -37 33 -93
82 -123 108 -30 26 -67 58 -81 70 -15 13 -36 26 -47 29 -11 4 -26 13 -32 21
-7 8 -20 15 -29 15 -8 0 2 -12 24 -27 22 -15 45 -32 50 -38 18 -21 155 -135
163 -135 4 -1 34 -25 67 -55 33 -30 63 -55 67 -55 5 0 8 -5 8 -10 0 -10 -21
-10 -30 0 -3 3 -27 24 -55 45 -27 22 -51 43 -53 48 -2 4 -12 7 -23 7 -10 0
-19 6 -19 14 0 8 -9 17 -19 21 -11 3 -22 12 -25 20 -6 17 -46 40 -46 26 0 -5
13 -22 28 -38 16 -16 35 -46 42 -68 11 -34 14 -37 21 -20 7 19 8 18 8 -3 1
-13 5 -20 11 -17 5 3 3 -13 -5 -35 -9 -27 -11 -38 -3 -34 8 5 9 2 5 -9 -5 -15
-3 -15 16 -4 24 13 37 27 37 41 0 5 -6 3 -14 -3 -18 -15 -31 16 -15 35 15 18
29 18 29 -1 0 -8 5 -15 11 -15 6 0 8 -8 5 -17 -3 -10 -1 -25 5 -33 9 -13 10
-12 5 2 -3 10 -1 20 4 23 11 7 14 -38 3 -48 -3 -4 -13 -1 -21 5 -12 10 -14 9
-10 -7 2 -11 10 -19 16 -17 7 1 12 -4 12 -12 0 -8 3 -22 7 -32 5 -13 3 -15 -7
-9 -9 5 -11 4 -6 -4 4 -6 12 -9 17 -6 5 4 9 1 9 -5 0 -6 5 -8 12 -4 7 4 8 3 4
-4 -4 -7 -3 -12 3 -12 5 0 15 8 20 18 8 13 10 10 7 -16 -2 -18 -7 -36 -11 -40
-4 -4 -4 4 0 18 7 21 6 23 -6 13 -12 -10 -24 -4 -62 28 -51 44 -61 46 -24 5
13 -14 32 -37 42 -50 11 -14 22 -23 26 -20 15 9 17 -25 1 -38 -9 -7 -13 -8 -9
-2 4 7 0 14 -8 18 -8 3 -17 0 -21 -6 -5 -7 -2 -8 6 -3 10 6 12 4 7 -9 -4 -9
-3 -15 1 -12 4 2 13 1 20 -3 9 -5 9 -11 -1 -26 -14 -17 -15 -17 -34 2 -23 23
-47 20 -34 -6 7 -13 5 -17 -10 -18 -10 -1 -19 2 -19 8 0 5 -7 9 -15 9 -8 0
-15 5 -15 12 0 6 -3 8 -6 5 -4 -4 -2 -13 5 -21 8 -9 8 -21 2 -39 -5 -14 -7
-29 -3 -33 4 -5 -1 -2 -10 5 -13 9 -16 21 -11 39 4 19 3 23 -7 17 -9 -6 -12
-4 -8 6 3 8 0 23 -7 33 -8 10 -11 24 -9 31 3 7 1 16 -5 20 -6 3 -11 25 -12 48
0 34 -2 38 -9 21 -13 -33 -34 -42 -26 -13 3 13 3 18 0 11 -5 -10 -9 -10 -20
-1 -21 17 -30 2 -11 -19 9 -10 19 -36 23 -60 3 -23 10 -40 14 -37 4 3 7 -8 7
-23 0 -15 -2 -21 -4 -14 -3 6 -9 10 -13 7 -5 -3 -7 -12 -4 -19 3 -8 1 -17 -5
-21 -6 -3 -9 0 -5 8 3 8 -5 25 -18 37 -13 13 -18 20 -12 17 6 -3 11 0 11 8 0
9 -7 14 -16 13 -13 -2 -15 4 -13 31 3 27 1 33 -12 28 -9 -4 -16 -2 -16 4 0 6
-4 7 -10 4 -6 -3 -7 1 -3 10 4 13 8 14 14 4 4 -8 11 -10 15 -6 4 3 1 13 -6 22
-11 14 -14 13 -26 -2 -10 -14 -15 -16 -25 -5 -8 7 -9 12 -2 12 6 0 14 7 17 16
5 14 4 15 -9 4 -18 -15 -20 1 -2 19 10 10 8 11 -8 5 -16 -6 -18 -5 -7 7 6 7
12 18 12 23 -1 6 -9 1 -19 -11 -16 -19 -20 -20 -25 -7 -4 10 -2 13 6 8 7 -4 8
-3 4 4 -4 7 -14 12 -22 12 -8 0 -13 4 -10 9 10 15 -67 107 -87 103 -10 -2 -16
0 -15 5 4 12 -54 123 -62 118 -9 -5 -35 43 -28 51 7 7 -59 74 -72 74 -13 0
-13 -17 1 -25 6 -4 7 -19 4 -36 -4 -19 -3 -29 5 -29 6 0 20 -19 31 -42 19 -40
20 -20 2 29 -6 15 -4 16 9 5 16 -12 32 -65 29 -90 -1 -7 5 -12 15 -10 10 2 23
-6 29 -18 6 -12 16 -29 23 -37 7 -8 10 -21 6 -30 -3 -8 -1 -18 5 -22 6 -3 8
-17 5 -30 -8 -32 3 -50 22 -34 11 9 14 8 14 -5 0 -10 3 -15 8 -13 4 3 13 -2
21 -10 12 -13 11 -14 -10 -8 -23 7 -23 6 -5 -7 11 -9 15 -18 9 -21 -12 -8
-223 203 -223 223 0 6 -4 9 -8 8 -5 -2 -53 46 -108 107 -54 60 -113 125 -131
144 -18 19 -30 37 -28 41 2 4 -6 13 -19 19 -12 7 -30 25 -39 39 -9 15 -42 55
-75 90 -33 34 -70 78 -83 97 -13 19 -30 35 -37 35 -7 0 -11 4 -8 9 3 5 -4 21
-16 37 -37 47 -31 52 36 31 78 -24 212 -75 251 -94 17 -9 66 -50 110 -92 45
-42 105 -96 134 -121 30 -25 60 -51 68 -59 8 -7 17 -11 20 -8 3 4 -7 17 -21
29 -49 41 -110 95 -151 132 -22 19 -43 36 -47 36 -5 0 -8 4 -8 9 0 6 -11 22
-25 37 -31 33 -25 45 18 34 32 -8 54 -12 198 -30 119 -16 187 -37 293 -91 99
-51 129 -58 82 -21 -16 12 -26 29 -25 43 l1 24 8 -25 c7 -23 8 -23 9 9 1 29
-1 32 -14 21 -8 -7 -16 -22 -16 -34 -2 -19 -2 -18 -6 3 -4 18 -7 21 -13 10 -5
-7 -12 -10 -16 -6 -4 4 -2 13 4 19 7 7 12 19 11 28 0 13 -1 13 -6 0 -4 -8 -12
-21 -20 -28 -11 -11 -13 -10 -14 5 0 10 -3 13 -6 6 -3 -9 -10 -10 -21 -4 -19
10 -203 49 -267 57 -22 3 -76 12 -120 20 -44 9 -91 17 -105 19 -38 6 -308 114
-286 115 17 0 16 2 -5 19 -13 10 -33 21 -44 25 -38 13 -76 52 -81 84 -4 27 -2
32 15 32 14 0 19 5 15 14 -3 8 -12 12 -20 9 -8 -3 -14 0 -14 7 0 6 -4 8 -10 5
-6 -3 -7 1 -3 10 4 12 8 13 13 5 10 -17 31 -3 24 15 -4 8 -10 12 -16 9 -5 -3
-4 3 4 15 l13 21 7 -22 c5 -18 6 -19 7 -5 1 11 10 21 21 24 11 3 20 12 20 19
0 22 72 17 153 -11 58 -21 82 -36 125 -80 30 -30 59 -55 65 -55 11 1 -7 18
-39 38 -5 4 -22 23 -37 43 l-27 36 52 -5 c29 -2 50 -2 47 2 -3 3 -30 9 -60 11
-63 6 -149 30 -175 50 -18 12 -17 14 11 25 17 7 50 21 75 31 135 55 349 109
435 109 25 0 44 4 41 9 -19 30 -399 -62 -588 -143 -21 -9 -63 -16 -95 -16 -53
1 -56 2 -39 15 11 8 28 15 38 15 10 0 18 4 18 10 0 5 6 7 14 4 17 -6 31 12 16
21 -5 3 -16 3 -22 -2 -7 -4 -23 -7 -35 -8 -12 0 -29 -9 -37 -20 -12 -15 -15
-16 -16 -5 0 11 -2 12 -8 3 -6 -10 -15 -9 -37 3 -17 8 -32 15 -35 15 -3 -1 -5
5 -5 12 0 6 6 13 13 13 6 1 17 2 22 3 6 0 10 11 10 24 0 18 2 19 10 7 9 -14
14 -7 11 13 -1 5 3 6 8 3 5 -3 22 1 37 9 16 8 38 15 48 15 11 0 28 8 39 18 11
9 17 11 13 5 -4 -8 -1 -13 8 -13 8 0 18 10 21 21 4 12 10 17 14 12 7 -12 81
-5 81 8 0 5 -5 9 -11 9 -5 0 -8 4 -4 10 4 6 15 6 30 0 20 -8 25 -6 25 6 0 10
-6 14 -14 11 -10 -4 -13 -1 -9 9 3 7 1 14 -4 14 -5 0 -10 7 -10 15 0 8 4 12 8
10 3 -3 12 2 19 10 16 19 7 19 -31 -1 -17 -8 -37 -13 -45 -10 -18 7 -65 -14
-58 -25 3 -5 2 -9 -3 -10 -51 -4 -74 -9 -100 -23 -18 -9 -39 -16 -48 -16 -8 0
-15 -5 -15 -11 0 -6 -7 -3 -17 6 -19 19 -6 33 30 30 15 -1 27 8 38 29 9 17 15
34 13 37 -2 4 6 6 19 5 14 -1 22 4 21 15 -1 10 34 35 95 69 94 53 155 91 177
109 26 22 108 60 117 54 6 -3 7 -1 4 4 -5 8 38 34 63 39 3 0 31 12 64 27 32
15 64 27 72 27 7 0 15 4 19 9 3 5 19 12 35 16 17 4 28 10 25 15 -5 8 -222 -75
-287 -111 -10 -5 -46 -24 -80 -43 -61 -32 -105 -57 -198 -110 -52 -29 -64 -32
-57 -11 4 8 2 17 -3 20 -5 3 -6 13 -3 22 6 15 5 16 -9 3 -11 -11 -13 -17 -4
-23 6 -5 2 -6 -11 -2 -15 4 -26 0 -36 -16 -21 -29 -12 -52 14 -38 11 5 19 6
19 1 0 -15 -39 -21 -48 -9 -9 15 -34 16 -44 2 -5 -7 -10 -7 -15 0 -12 16 -33
16 -33 1 0 -8 -8 -13 -17 -12 -10 2 -23 -3 -28 -11 -9 -12 -11 -10 -12 6 -2
22 53 75 67 66 5 -3 11 4 15 15 3 11 12 20 20 20 7 0 15 7 19 15 3 8 12 15 21
15 8 0 15 5 15 11 0 5 5 7 10 4 6 -3 10 1 10 10 0 8 7 18 16 22 9 3 39 22 67
40 28 19 58 32 68 30 14 -4 15 -1 6 24 -6 15 -13 26 -15 24 -2 -2 -10 2 -17 8
-11 10 -10 15 2 29 8 9 20 15 26 14 7 -2 9 -1 5 1 -15 9 -8 25 8 19 8 -3 13
-2 9 3 -7 13 5 42 16 35 5 -3 9 0 9 5 0 16 -20 13 -26 -4 -4 -8 -10 -12 -15
-9 -5 3 -9 -2 -9 -11 0 -11 -5 -15 -15 -11 -10 3 -15 -1 -15 -12 0 -9 -16 -28
-36 -41 -29 -20 -37 -22 -44 -11 -5 8 -6 18 -4 22 14 23 -18 3 -45 -27 -17
-20 -31 -33 -31 -29 0 4 -9 -1 -20 -11 -32 -29 -32 -12 -1 26 15 19 31 42 34
52 4 11 12 15 18 11 7 -4 9 -3 5 4 -3 6 13 21 39 35 42 24 44 24 50 6 4 -11
11 -17 16 -13 6 4 6 11 -1 19 -9 11 -5 19 22 35 18 11 41 19 51 16 9 -2 15 -1
12 3 -7 12 261 131 294 131 5 0 45 11 88 24 160 49 193 57 203 51 5 -3 10 0
10 7 0 9 3 9 10 -2 8 -13 10 -12 10 3 0 9 7 17 15 17 8 0 16 -8 16 -17 1 -17
2 -17 6 0 2 9 9 15 14 12 5 -4 9 -1 9 4 0 6 5 11 10 11 6 0 10 -2 10 -4z
m-3459 -677 c4 -6 4 -23 0 -38 -4 -14 -6 -41 -5 -58 1 -18 -2 -33 -6 -33 -5 0
-7 -9 -5 -21 4 -17 2 -19 -10 -9 -12 10 -15 9 -15 -6 0 -13 -3 -15 -11 -7 -8
8 -5 23 10 54 12 23 21 46 21 50 0 18 -82 -73 -84 -93 -5 -38 -18 -59 -31 -54
-8 3 -11 -2 -8 -15 3 -10 10 -16 16 -12 6 3 7 1 3 -6 -6 -9 -11 -9 -22 0 -8 6
-14 8 -14 4 0 -5 -3 -6 -6 -3 -3 4 0 17 7 30 14 25 13 78 -1 92 -6 6 -16 4
-27 -5 -17 -13 -17 -13 -4 4 13 16 13 20 0 28 -8 5 -9 9 -4 10 6 0 1 5 -10 10
-17 7 -15 8 10 7 17 -1 42 -10 57 -20 32 -22 44 -23 52 -3 3 8 15 15 27 15 14
0 19 5 16 14 -3 8 -1 17 6 20 7 3 0 3 -15 0 -19 -4 -28 -2 -28 6 0 9 -7 7 -22
-5 -13 -10 -5 0 17 22 39 40 70 48 86 22z m609 -400 c0 -5 -6 -8 -12 -6 -18 3
-19 -50 -2 -64 8 -6 14 -20 14 -30 0 -11 5 -19 10 -19 6 0 10 2 10 4 0 2 3 11
6 20 3 9 1 16 -6 16 -6 0 -18 7 -26 15 -14 13 -13 15 3 14 32 -1 48 -13 49
-36 0 -13 -3 -23 -7 -23 -5 0 -5 -7 -2 -17 5 -12 3 -14 -7 -8 -8 5 -11 3 -8
-6 5 -15 -14 -39 -30 -39 -6 0 -13 -6 -15 -12 -3 -7 -6 -3 -6 10 -1 22 -21 32
-21 10 0 -9 -3 -9 -12 0 -9 9 -15 9 -26 -1 -12 -9 -16 -9 -19 1 -3 6 -12 12
-20 12 -9 0 -13 6 -10 15 8 19 -15 63 -30 58 -6 -2 -14 1 -18 7 -4 6 -1 11 6
9 36 -4 49 20 26 49 -6 8 -6 12 2 12 15 0 31 -43 26 -69 -3 -18 -1 -20 16 -11
11 6 23 9 28 6 4 -3 6 6 3 19 -2 14 -11 25 -18 25 -9 0 -12 8 -10 23 3 12 5
22 5 22 1 0 24 0 51 1 28 1 50 -3 50 -7z m-276 -60 c10 15 27 -4 52 -56 10
-24 24 -41 30 -39 7 3 28 -4 47 -14 20 -11 48 -22 63 -24 15 -3 32 -11 38 -17
8 -9 6 -10 -7 -5 -13 4 -20 1 -24 -12 -5 -21 -177 -132 -205 -132 -10 0 -18
-7 -18 -15 0 -17 -9 -19 -29 -6 -12 8 -12 12 -3 24 9 11 10 26 3 56 -12 55
-33 86 -81 117 -44 29 -49 39 -22 42 42 4 56 9 60 20 2 7 8 9 14 6 6 -4 8 1 4
13 -5 16 1 24 26 36 22 11 35 12 39 5 4 -7 9 -7 13 1z m-671 -62 c8 7 1 -33
-8 -48 -4 -6 0 -16 9 -22 9 -7 19 -25 22 -41 7 -40 15 -51 25 -35 7 11 9 11 9
-2 0 -9 7 -20 16 -23 8 -3 12 -10 9 -16 -3 -5 -1 -10 4 -10 6 0 11 -5 11 -11
0 -6 -8 -8 -19 -4 -15 5 -18 1 -15 -22 2 -16 1 -22 -2 -15 -3 6 -12 12 -21 12
-8 0 -28 8 -44 17 -25 15 -31 15 -38 4 -5 -7 -6 -22 -4 -32 3 -10 0 -19 -6
-19 -13 0 -13 10 -2 68 6 32 5 42 -4 42 -8 0 -12 10 -10 26 2 19 -3 28 -16 31
-23 6 -24 19 -3 27 12 4 14 13 10 32 -5 17 -3 25 6 23 39 -5 50 1 45 24 -5 20
-5 20 7 5 7 -10 16 -15 19 -11z m1447 -221 c0 -6 -5 -4 -10 4 -9 13 -10 13
-10 0 0 -9 -17 -23 -37 -33 -21 -9 -118 -56 -216 -104 -147 -71 -180 -84 -188
-72 -8 11 -9 10 -7 -6 2 -15 -8 -25 -37 -40 -22 -11 -66 -36 -98 -54 -32 -18
-61 -30 -64 -27 -4 3 -1 6 5 6 6 0 9 8 6 18 -4 12 -3 13 3 4 12 -17 43 -5 42
17 0 10 -2 11 -6 4 -2 -7 -9 -13 -14 -13 -6 0 -8 3 -6 8 8 11 -16 27 -39 26
-30 -2 -46 -14 -40 -30 3 -8 0 -14 -5 -14 -6 0 -9 -9 -6 -20 3 -11 1 -20 -4
-20 -9 0 -13 22 -10 48 3 17 -20 15 -49 -5 -24 -16 -24 -16 -11 0 9 11 9 17 2
17 -6 0 -16 -9 -23 -19 -11 -19 -38 -18 -38 1 0 5 16 25 35 44 19 18 35 38 35
43 0 5 7 12 16 15 13 5 14 9 4 21 -6 7 -17 13 -23 11 -7 -1 -9 -1 -4 1 4 3 7
14 7 25 0 18 -2 19 -16 7 -14 -12 -16 -11 -13 6 3 11 10 20 17 20 8 0 19 7 25
16 7 9 22 19 34 23 12 4 20 12 17 19 -7 18 78 16 93 -3 7 -8 11 -20 9 -25 -6
-18 20 -35 33 -22 8 8 11 8 11 -1 0 -6 -11 -19 -25 -28 -14 -9 -23 -19 -20
-22 3 -3 13 2 23 11 18 16 20 16 36 -2 17 -19 17 -20 -3 -33 -31 -19 -26 -27
17 -24 27 1 40 7 47 24 5 12 13 22 17 22 11 0 10 -8 -3 -33 -11 -21 -11 -21 7
-6 19 16 51 32 69 33 6 1 11 11 13 24 2 12 7 22 12 22 5 0 6 -8 3 -17 -7 -18
-10 -19 105 49 17 11 32 17 32 13 0 -3 7 1 16 9 8 9 24 16 35 16 10 0 19 4 19
9 0 5 14 12 30 16 17 4 30 11 30 16 0 5 10 9 23 9 40 0 67 12 67 29 1 13 3 13
15 -3 8 -11 15 -25 15 -30z m-1330 -111 c0 -9 6 -12 15 -9 9 4 15 0 15 -10 0
-9 6 -16 13 -16 9 0 8 -3 -2 -9 -10 -7 -8 -14 10 -36 13 -14 25 -30 25 -33 6
-26 18 -52 25 -52 4 0 13 -9 19 -19 7 -15 6 -23 -5 -35 -14 -13 -19 -12 -53
10 l-37 26 -3 -46 c-2 -25 -7 -46 -13 -46 -12 0 -12 57 2 81 8 16 7 25 -7 40
-9 10 -14 19 -11 19 4 0 -2 23 -12 51 -16 40 -17 56 -9 75 12 27 28 32 28 9z
m1220 -43 c0 -20 -101 -97 -177 -136 -54 -27 -69 -43 -33 -33 29 8 25 0 -11
-19 -17 -8 -28 -11 -25 -5 10 16 -5 13 -18 -3 -37 -47 -553 -303 -572 -284 -3
4 0 16 6 28 10 18 14 20 21 9 7 -11 9 -9 9 6 0 12 3 16 8 9 10 -15 52 -12 52
4 0 8 6 12 12 10 7 -3 17 4 23 15 5 11 17 22 25 25 9 2 7 -2 -5 -11 -11 -8
-18 -18 -15 -21 9 -8 70 35 70 48 0 7 10 18 23 24 l22 11 -22 0 c-23 1 -32 25
-13 36 6 4 7 -1 3 -12 -5 -14 -3 -16 7 -6 11 10 11 15 0 28 -11 13 -9 18 10
35 13 11 29 20 35 20 7 0 16 7 19 16 4 9 9 14 12 11 4 -3 13 1 21 9 9 8 23 12
31 9 9 -3 13 -3 9 1 -4 4 10 15 30 25 23 11 40 14 44 8 3 -6 12 -2 20 7 8 10
9 15 2 11 -6 -4 -14 -3 -18 2 -3 6 3 8 15 6 11 -2 22 0 25 5 3 5 12 7 19 4 8
-3 16 2 18 12 3 16 4 17 20 1 9 -9 19 -17 21 -17 7 0 3 22 -6 38 -8 12 5 17
16 6 10 -11 71 -13 77 -4 3 5 18 11 33 14 15 3 43 14 62 26 19 12 39 19 44 16
5 -3 14 1 21 9 13 16 30 20 30 7z m1575 -43 c62 -54 213 -197 298 -282 73 -73
102 -96 111 -88 9 8 28 -6 72 -52 33 -34 97 -101 142 -148 58 -61 80 -91 76
-103 -3 -9 -11 -16 -16 -16 -6 0 -7 8 -3 18 4 12 3 14 -5 6 -16 -16 -73 -5
-65 13 4 11 0 14 -14 10 -31 -8 -43 14 -26 46 8 15 10 25 4 21 -6 -3 -13 3
-16 14 -3 14 -11 18 -26 16 -12 -2 -16 -2 -9 2 24 11 11 19 -39 21 -42 3 -55
8 -79 35 -17 18 -29 39 -27 48 1 8 -3 14 -9 13 -6 -1 -36 25 -65 58 -63 71
-94 93 -76 55 7 -14 16 -22 21 -19 5 4 6 0 1 -7 -6 -10 -17 -4 -41 25 -22 26
-30 43 -23 51 9 11 2 24 -13 24 -5 0 -6 -5 -2 -12 4 -7 3 -8 -4 -4 -7 4 -12
11 -12 16 0 13 -60 100 -69 100 -4 0 -30 30 -57 67 -27 38 -55 77 -63 87 -13
17 -13 18 0 11 8 -5 23 -17 34 -26z m-1298 -23 c-4 -10 3 -13 24 -11 16 1 32
-1 35 -6 3 -5 10 -7 15 -4 5 4 9 1 9 -4 0 -6 4 -11 10 -11 5 0 6 8 3 18 -6 16
-6 16 11 -1 20 -20 21 -19 -13 -37 -19 -10 -22 -10 -16 2 4 7 -4 2 -18 -12
-13 -14 -35 -33 -48 -42 -147 -104 -302 -231 -313 -256 -7 -16 29 2 41 21 4 7
46 41 93 75 47 34 97 71 112 82 14 11 31 20 37 20 6 0 11 5 11 10 0 6 8 14 18
17 9 4 38 21 64 39 l46 33 -9 -37 c-6 -20 -17 -56 -25 -79 -11 -31 -13 -47 -5
-60 9 -16 10 -16 11 4 0 12 5 25 10 28 6 4 9 1 8 -7 -2 -9 13 -13 56 -14 49 0
60 2 64 18 2 10 8 18 13 18 12 0 11 -7 -1 -31 -7 -13 -7 -19 0 -19 5 0 10 6
10 13 0 8 4 7 10 -3 5 -8 10 -11 10 -7 0 4 9 3 19 -3 20 -10 25 -50 6 -50 -5
0 -2 -5 8 -11 9 -6 15 -15 11 -21 -4 -6 2 -6 15 1 11 7 21 19 22 29 1 28 9 75
19 107 l8 30 1 -27 c1 -15 6 -30 11 -33 13 -8 3 -43 -19 -69 -9 -11 -11 -16
-5 -13 15 9 -29 -158 -58 -222 -11 -25 -50 -104 -85 -175 -64 -127 -70 -176
-8 -59 18 34 36 59 41 55 4 -4 4 -2 1 4 -5 10 4 32 57 133 22 42 32 30 41 -51
4 -32 10 -56 14 -53 4 2 4 30 -1 62 -4 32 -9 74 -9 93 -1 33 38 180 66 245 7
17 18 49 25 72 7 23 16 40 21 38 14 -9 39 -98 59 -215 12 -63 45 -221 75 -350
29 -129 61 -284 70 -345 10 -60 21 -114 25 -118 4 -5 3 15 -2 44 -5 29 -8 68
-6 86 2 18 0 34 -4 35 -5 2 -10 31 -11 66 -1 34 -5 62 -9 62 -5 0 -8 12 -8 28
0 21 2 24 10 12 14 -21 6 106 -15 227 -2 13 -7 28 -11 35 -10 15 -13 60 -13
183 0 55 0 116 0 135 0 45 -9 154 -17 205 -3 22 -3 37 1 33 8 -7 25 -83 70
-304 13 -66 27 -127 29 -135 3 -8 7 -27 9 -44 3 -16 15 -70 27 -119 11 -49 22
-103 24 -121 2 -18 5 -36 8 -41 3 -5 5 -44 6 -86 0 -43 3 -82 6 -87 4 -5 2
-12 -3 -16 -6 -3 -7 -15 -3 -28 10 -26 9 -38 -2 -55 -4 -7 -5 -19 -2 -27 3 -8
1 -15 -5 -15 -6 0 -7 -6 -2 -12 10 -17 14 -38 13 -63 -1 -11 -2 -102 -3 -202
-1 -100 -4 -180 -6 -178 -2 2 -7 19 -12 37 -6 26 -7 20 -4 -24 4 -52 3 -58
-14 -58 -10 0 -24 7 -31 15 -7 8 -17 12 -22 9 -6 -4 -5 -10 3 -15 10 -6 10 -9
2 -9 -7 0 -10 -7 -7 -15 9 -22 -14 -45 -45 -46 -23 -2 -23 -2 -4 -6 12 -2 32
1 45 8 13 6 20 8 16 4 -4 -4 -3 -15 2 -25 6 -12 5 -17 -6 -17 -7 0 -14 4 -14
9 0 13 -62 1 -71 -14 -16 -25 -26 7 -30 93 -2 27 -6 46 -9 42 -4 -5 -3 -48 2
-97 9 -82 8 -91 -9 -103 -10 -7 -30 -23 -45 -35 -26 -21 -63 -34 -53 -18 3 4
-1 13 -9 19 -8 6 -17 37 -21 69 -6 45 -9 52 -15 32 -6 -25 -6 -25 -17 7 -8 23
-9 35 -1 39 6 4 8 24 3 53 -4 25 -9 66 -12 91 -3 25 -9 50 -13 55 -4 6 -7 22
-5 38 2 15 -1 27 -6 27 -5 0 -9 8 -9 18 -1 16 -2 16 -13 0 -9 -12 -17 -14 -30
-6 -10 5 -15 13 -12 19 4 5 1 9 -6 9 -7 0 -9 3 -6 7 7 7 -11 33 -23 33 -3 0
-7 -7 -7 -15 0 -8 4 -15 8 -15 4 0 10 -8 13 -17 10 -30 57 -75 73 -69 8 3 11
1 8 -5 -4 -5 -15 -7 -26 -4 -15 5 -18 3 -12 -12 4 -10 13 -24 20 -31 17 -17 8
-33 -15 -26 -10 4 -13 2 -7 -3 6 -4 10 -23 11 -41 0 -25 -3 -31 -14 -27 -10 3
-12 0 -8 -10 3 -8 1 -15 -4 -15 -6 0 -10 10 -10 23 0 13 -4 27 -10 33 -6 6 -6
21 -1 40 8 30 -1 64 -18 64 -10 0 -8 -51 2 -67 5 -8 3 -13 -3 -13 -6 0 -8 -4
-5 -10 9 -15 16 -51 16 -82 0 -15 5 -31 11 -34 7 -4 8 -2 4 4 -11 19 9 14 34
-8 19 -16 20 -20 6 -20 -15 0 -15 -2 -1 -30 9 -16 12 -30 8 -30 -4 0 2 -7 13
-16 19 -15 19 -16 -1 -9 -16 5 -18 4 -7 -6 6 -7 12 -24 12 -37 0 -24 -1 -24
-25 -8 -22 14 -25 15 -25 1 0 -8 -5 -15 -11 -15 -5 0 -8 4 -5 9 3 5 0 14 -8
20 -11 9 -15 9 -18 -1 -8 -23 -27 150 -39 352 -6 107 -13 197 -15 199 -8 9 -1
-156 22 -478 5 -66 4 -92 -4 -87 -6 3 -14 1 -18 -5 -3 -6 -9 -7 -13 -3 -3 5
-17 15 -30 22 -21 12 -23 12 -18 -2 8 -20 1 -20 -43 2 -31 15 -36 23 -42 67
-3 28 -7 76 -7 108 -1 31 -5 57 -10 57 -4 0 -11 18 -14 41 -6 43 -17 62 -24
41 -3 -6 -10 -9 -16 -5 -6 4 -8 0 -4 -10 3 -10 2 -17 -3 -17 -14 0 -13 -27 1
-36 6 -3 15 -1 19 6 5 9 9 9 14 1 4 -6 2 -11 -5 -11 -7 0 -9 -3 -6 -6 3 -4 2
-15 -4 -26 -7 -13 -16 -17 -31 -12 -13 4 -18 2 -14 -5 4 -6 -7 -3 -23 7 -17 9
-26 18 -21 20 6 2 10 12 10 23 0 10 4 19 10 19 5 0 7 -6 4 -14 -3 -8 5 -21 18
-30 34 -24 43 -19 14 7 -14 13 -23 27 -20 30 3 3 -4 10 -15 17 -23 12 -23 13
-26 -15 -2 -11 -6 -28 -10 -37 -5 -13 0 -20 19 -28 14 -5 26 -12 26 -14 0 -3
-8 -2 -17 1 -16 6 -17 5 -3 -12 14 -17 14 -18 -8 -6 -12 7 -20 16 -17 22 4 5
-1 9 -9 9 -9 0 -16 9 -16 20 0 11 -4 20 -10 20 -5 0 -10 -7 -10 -15 0 -19 1
-19 -46 2 -38 16 -38 16 -14 24 14 4 19 7 11 8 -7 1 -11 7 -8 15 3 8 -2 17
-11 21 -14 5 -14 7 -2 16 11 7 6 8 -15 4 -27 -6 -28 -5 -10 7 19 13 36 56 17
44 -6 -3 -12 0 -15 8 -4 11 1 13 19 10 19 -3 24 0 24 16 0 11 -6 20 -12 20 -9
0 -8 4 2 10 8 5 11 10 5 10 -5 0 -3 5 5 10 8 5 15 24 16 43 0 18 4 39 9 47 8
14 16 55 17 98 0 12 4 22 8 22 6 0 17 43 25 105 1 6 7 22 13 37 13 30 22 169
11 163 -3 -3 -21 -51 -39 -107 -32 -101 -56 -152 -46 -96 2 15 8 33 12 40 4 7
-3 4 -16 -7 l-24 -20 21 30 c18 25 19 33 8 48 -13 18 -31 24 -20 7 3 -5 2 -10
-2 -10 -5 0 -16 -16 -25 -35 -10 -23 -12 -35 -4 -35 6 0 4 -5 -4 -10 -11 -7
-12 -12 -3 -21 9 -9 9 -18 2 -32 -8 -14 -8 -18 0 -13 7 4 11 -1 11 -13 0 -11
4 -22 10 -26 5 -3 9 5 8 17 -2 39 1 48 16 48 12 0 13 -6 5 -32 -6 -18 -12 -40
-14 -48 -1 -8 -8 -35 -15 -59 -6 -23 -9 -46 -6 -49 3 -3 6 0 6 7 0 7 5 9 10 6
14 -9 12 -28 -6 -51 -8 -10 -13 -13 -9 -6 3 6 2 12 -3 12 -5 0 -17 -36 -27
-80 -10 -45 -23 -84 -28 -87 -6 -3 -7 -1 -4 4 4 6 0 13 -8 17 -8 3 -14 0 -12
-6 1 -7 -5 -12 -13 -12 -29 1 -50 16 -50 38 0 11 -3 32 -7 45 l-6 24 -17 -23
c-13 -17 -23 -21 -39 -15 -12 4 -20 9 -17 13 3 3 -8 14 -26 25 -22 13 -28 21
-19 26 9 6 8 10 -5 15 -16 6 -16 8 -4 16 8 6 11 10 5 10 -5 0 -3 5 5 11 11 8
12 12 3 16 -21 8 -15 30 15 51 23 18 25 21 10 27 -16 6 -16 10 -2 43 8 20 19
39 25 43 5 3 11 15 12 26 1 14 6 19 19 15 20 -5 25 14 6 21 -17 5 9 39 26 35
6 -2 19 4 27 12 13 12 14 18 2 40 -8 15 -9 26 -3 28 6 2 8 8 4 13 -3 5 2 12
10 15 9 3 13 10 10 15 -3 5 8 27 25 48 17 21 31 46 31 55 0 9 14 30 30 46 17
16 30 36 30 45 0 8 4 15 8 15 5 0 14 12 21 26 7 17 17 24 26 20 17 -6 20 9 4
19 -6 5 -4 11 6 19 10 7 15 22 13 37 -3 23 -22 -2 -101 -136 -6 -11 -22 -37
-35 -57 -14 -21 -21 -42 -16 -49 4 -7 3 -10 -4 -6 -15 10 -110 -156 -182 -320
-13 -29 -27 -53 -31 -53 -4 0 -6 -8 -5 -17 0 -10 -5 -18 -12 -18 -8 0 -19 -7
-25 -15 -23 -30 -44 -23 -52 17 -9 49 -20 61 -61 69 -24 4 -34 12 -34 25 0 11
5 19 11 19 5 0 7 5 4 10 -4 6 -10 8 -15 5 -4 -3 -6 4 -3 14 3 11 13 21 23 24
14 4 18 11 14 32 -3 17 -1 24 6 20 5 -3 10 -2 10 4 0 5 -5 13 -10 16 -14 9 21
54 43 55 20 0 23 18 3 26 -8 3 -12 16 -10 32 5 39 63 144 76 136 7 -4 8 -2 4
4 -4 7 -2 12 4 12 6 0 9 4 6 9 -8 13 39 95 103 179 31 40 65 88 75 105 l19 32
-36 -34 c-21 -19 -37 -39 -37 -43 0 -8 -7 -18 -36 -51 -16 -19 -97 -154 -144
-243 -42 -80 -80 -122 -80 -89 0 8 5 15 11 15 6 0 8 13 5 31 -2 17 -2 28 1 25
3 -3 19 2 35 12 22 13 28 23 25 40 -2 12 0 22 5 22 5 0 8 6 7 13 -3 25 13 55
32 60 12 3 19 15 20 31 2 44 5 51 15 49 15 -3 15 47 0 53 -18 7 -15 28 11 60
14 18 23 22 28 14 4 -7 1 -17 -6 -22 -12 -8 -11 -9 1 -5 8 2 20 14 26 26 7 13
17 28 23 34 6 6 11 19 11 29 0 12 6 18 18 16 12 -2 18 5 20 27 5 39 19 55 48
55 13 0 24 4 24 10 0 5 20 30 45 56 25 25 45 51 45 57 1 17 36 57 50 57 6 0
21 11 33 24 42 45 126 84 114 52z"/>
</g>
</svg>
